<?xml version="1.0" encoding="utf-8"?>
<!-- Generator: Adobe Illustrator 25.2.3, SVG Export Plug-In . SVG Version: 6.00 Build 0)  -->
<svg version="1.1" id="Layer_1" xmlns="http://www.w3.org/2000/svg" xmlns:xlink="http://www.w3.org/1999/xlink" x="0px" y="0px"
	 viewBox="0 0 24 24" style="enable-background:new 0 0 24 24;" xml:space="preserve">
<style type="text/css">
	.st0{fill:#02429E;}
</style>
<g id="Layer_1_1_">
	<g>
		<path class="st0" d="M23.6,18.6V4.4c0-0.2-0.2-0.4-0.4-0.4h-3.9V2c0-0.1,0-0.2-0.1-0.3c-0.1-0.1-0.2-0.1-0.3-0.1H5.2
			C5,1.6,4.8,1.8,4.8,2v2H0.9C0.6,4,0.4,4.2,0.4,4.4v14.2c0,0.1,0,0.2,0.1,0.3C0.6,19,0.7,19,0.8,19h7.9l-1,2.4H5.9
			c-0.2,0-0.3,0.1-0.4,0.2s-0.1,0.2-0.1,0.3c0,0.2,0.2,0.4,0.4,0.4l0,0h12.1l0,0c0.2,0,0.4-0.2,0.5-0.4c0-0.1,0-0.2-0.1-0.3
			c-0.1-0.1-0.2-0.1-0.3-0.1h-1.8l-1-2.4h7.9C23.4,19.1,23.6,18.9,23.6,18.6z M5.7,2.4h12.6v13H5.7V2.4z M1.3,4.8h3.5v10.6H1.3V4.8z
			 M15.3,21.5H8.7l1-2.4h4.6L15.3,21.5z M22.7,18.2H1.3v-1.9h21.4C22.7,16.3,22.7,18.2,22.7,18.2z M22.7,15.4h-3.5V4.8h3.5V15.4z"/>
		<path class="st0" d="M16,13.4h-8c-0.2,0-0.4-0.2-0.4-0.4v0c0-0.2,0.2-0.4,0.4-0.4h8c0.2,0,0.4,0.2,0.4,0.4v0
			C16.5,13.2,16.3,13.4,16,13.4z"/>
		<path class="st0" d="M16,9.4h-8C7.8,9.4,7.6,9.2,7.6,9v0c0-0.2,0.2-0.4,0.4-0.4h8c0.2,0,0.4,0.2,0.4,0.4v0
			C16.5,9.2,16.3,9.4,16,9.4z"/>
		<path class="st0" d="M16,5.4h-8C7.8,5.4,7.6,5.2,7.6,5v0c0-0.2,0.2-0.4,0.4-0.4h8c0.2,0,0.4,0.2,0.4,0.4v0
			C16.5,5.2,16.3,5.4,16,5.4z"/>
	</g>
</g>
<g id="Layer_2_1_">
</g>
</svg>
