<?xml version="1.0" encoding="utf-8"?>
<!-- Generator: Adobe Illustrator 25.2.3, SVG Export Plug-In . SVG Version: 6.00 Build 0)  -->
<svg version="1.1" id="Layer_1" xmlns="http://www.w3.org/2000/svg" xmlns:xlink="http://www.w3.org/1999/xlink" x="0px" y="0px"
	 viewBox="0 0 24 24" style="enable-background:new 0 0 24 24;" xml:space="preserve">
<style type="text/css">
	.st0{fill:#003589;}
</style>
<g transform="translate(0,-952.36218)">
	<path class="st0" d="M2.2,953.9c-1.1,0-2,0.9-2,2v10c0,1.1,0.9,2,2,2h1.7l-0.4,4.4c0,0.2,0.1,0.4,0.3,0.5c0.2,0.1,0.4,0,0.6-0.1
		l4.9-4.9h2.5v3.8c0,0.9,0.7,1.6,1.6,1.6l4.5,0l2.6,2.4c0.1,0.1,0.4,0.2,0.6,0.1s0.3-0.3,0.3-0.5l-0.2-1.9h1.1
		c0.9,0,1.6-0.8,1.6-1.6v-6.7c0-0.9-0.7-1.6-1.6-1.6l-2.4,0v-7.5c0-1.1-0.9-2-2-2L2.2,953.9z M2.2,954.9h15.5c0.6,0,1,0.4,1,1v7.5
		l-5.4,0c-0.9,0-1.6,0.8-1.6,1.6v1.9H9c-0.1,0-0.3,0.1-0.4,0.1l-4,4l0.4-3.6c0-0.3-0.2-0.5-0.5-0.5H2.2c-0.6,0-1-0.4-1-1v-10
		C1.2,955.3,1.7,954.9,2.2,954.9L2.2,954.9z M9.2,955.9c-1.4,0-2.7,0.9-3,2.1c-0.1,0.3,0.1,0.6,0.4,0.6c0.3,0.1,0.6-0.1,0.6-0.4
		c0.2-0.7,1-1.3,2-1.3c1.2,0,2,0.8,2,1.6c0,1.4-0.5,1.8-1.1,2.4c-0.6,0.6-1.4,1.4-1.4,3c0,0.3,0.2,0.5,0.5,0.5s0.5-0.2,0.5-0.5
		c0-1.4,0.5-1.7,1.1-2.3c0.6-0.6,1.4-1.4,1.4-3.1C12.2,957,10.8,955.9,9.2,955.9z M13.3,964.4l8.8,0c0.3,0,0.6,0.3,0.6,0.6v6.7
		c0,0.4-0.3,0.6-0.6,0.6h-1.7c-0.3,0-0.5,0.3-0.5,0.5l0.1,1.2l-1.8-1.6c-0.1-0.1-0.2-0.1-0.3-0.1l-4.6,0c-0.3,0-0.6-0.3-0.6-0.6V965
		C12.7,964.7,13,964.4,13.3,964.4L13.3,964.4z M9.2,964.9c-0.3,0-0.5,0.2-0.5,0.5s0.2,0.5,0.5,0.5s0.5-0.2,0.5-0.5
		S9.5,964.9,9.2,964.9z M17.5,965.1c-0.3,0-0.5,0.2-0.5,0.5v4c0,0.3,0.2,0.5,0.5,0.5s0.5-0.2,0.5-0.5v-4
		C18,965.4,17.8,965.1,17.5,965.1z M17.5,970.6c-0.3,0-0.5,0.2-0.5,0.5c0,0.3,0.2,0.5,0.5,0.5s0.5-0.2,0.5-0.5
		C18,970.9,17.8,970.6,17.5,970.6z"/>
</g>
</svg>
